<svg width="1989" height="783" viewBox="0 0 1989 783" fill="none" xmlns="http://www.w3.org/2000/svg">
<path d="M1953.48 6.5C1965.52 71.8711 2011.27 179.699 1955.38 306.876C1926.19 373.282 1901.09 421.257 1871.91 460.73C1845 497.13 1814.47 526.495 1773.73 556.39C1773.61 526.185 1772.9 522.555 1769.94 481.127L1768.44 460.173L1757.84 478.311C1725.6 533.486 1654.22 627.004 1561.07 696.695C1584.07 635.543 1598.97 542.145 1601.09 471.326L1601.6 454.274L1589.87 466.662C1549.98 508.799 1435.46 606.23 1300.82 681.895C1312.86 649.566 1328.01 608.875 1324.23 566.117L1323.08 553.089L1313.39 561.873C1298.61 575.27 1274.52 590.966 1245.35 607.505C1216.28 623.984 1182.55 641.088 1148.75 657.339C1084.36 688.306 1020.06 716.024 987.696 730.336C979.168 719.453 977.056 714.999 972.259 708.444C967.112 701.412 960.111 694.009 941.495 677.788L934.785 671.941L931.258 680.111C912.595 723.333 908.076 738.96 883.873 773.836C853.845 751.785 850.764 748.647 787.753 684.32L780.365 676.778L776.958 686.771C773.756 696.158 770.664 701.871 769.857 710.871C769.202 718.188 769.92 728.038 772.188 745.625C697.16 708.368 603.128 655.741 546.587 560.518L537.365 544.987L534.575 562.832C527.884 605.635 527.807 684.669 527.833 735.925C501.621 718.063 464.273 685.442 427.005 650.123C384.94 610.258 343.561 567.522 319.468 540.058L308.082 527.078V544.344C308.082 565.083 306.568 582.96 317.271 660.308C180.598 549.476 60.3941 382.893 6.5 135.739V6.5H1953.48Z" fill="#42DBE6" stroke="#F70042" stroke-width="13"/>
</svg>
