<svg width="1970" height="431" viewBox="0 0 1970 431" fill="none" xmlns="http://www.w3.org/2000/svg">
<path d="M4.78174 140.23C107.218 251.475 140.039 284.279 309.85 415.016C289.397 319.459 302.715 223.426 313.656 156.869C355.99 203.459 463.014 308.524 530.082 354.164C517.24 280.951 520.093 156.869 536.742 86.0328C593.821 172.082 683.722 288.557 736.045 335.147C741.277 262.41 776.476 184.918 800.735 148.311C834.031 205.836 844.02 221.525 863.998 288.557C962.46 223.902 973.4 207.738 1070.91 132.623C1070.91 216.77 1064.73 231.984 1041.42 291.885C1110.39 240.066 1204.1 143.082 1230.26 123.59C1235.02 228.656 1225.5 224.852 1212.66 296.164C1330.62 235.311 1392.94 194.426 1466.66 154.016C1460.96 204.885 1458.1 208.688 1426.71 261.459C1579.87 210.59 1656.93 162.098 1728.75 131.197C1720.67 237.213 1715.43 220.098 1684.52 301.869C1770.14 239.115 1895.24 99.3442 1963.73 3.78687" stroke="#F70042" stroke-width="13"/>
</svg>
