<svg width="842" height="657" viewBox="0 0 842 657" fill="none" xmlns="http://www.w3.org/2000/svg">
<path d="M411.906 12.8535C469.205 4.17786 517.754 13.4602 563.265 27.832C586.14 35.0559 608.034 43.4908 630.141 51.6436C652.114 59.7472 674.195 67.5314 696.798 73.1201C734.389 82.4146 773.505 85.6527 816.902 74.6689C761.28 157.535 743.283 249.649 723.001 336.104C700.63 431.46 675.498 520.202 597.215 589.275C513.314 663.306 393.883 652.951 278.075 630.155C221.157 618.951 164.471 604.598 116.373 597.392C79.8251 591.915 45.8589 590.096 18.4385 597.787C28.8801 570.544 36.0286 538.478 42.2764 504.247C50.458 459.42 57.0407 411.32 67.2812 362.178C87.6707 264.335 121.565 168.285 205.563 107.599C287.555 48.3618 354.536 21.54 411.906 12.8535Z" stroke="#2DF3F3" stroke-width="19"/>
</svg>
