<svg width="980" height="980" viewBox="0 0 980 980" fill="none" xmlns="http://www.w3.org/2000/svg">
<path d="M303.859 374.5H143C141.895 374.5 141 375.395 141 376.5V610.5C141 611.605 141.895 612.5 143 612.5H303.878C304.283 612.5 304.679 612.623 305.012 612.853L587.365 807.341C588.692 808.255 590.5 807.305 590.5 805.694V173.889C590.5 172.262 588.66 171.315 587.337 172.262L305.022 374.127C304.682 374.37 304.276 374.5 303.859 374.5Z" fill="#31E7E6"/>
<path d="M610.998 374C683.498 414.5 706 502 615.998 567.5C668.5 509 663.332 421.5 610.998 374Z" fill="#31E7E6"/>
<path d="M674.5 349.5C775 419 788.5 528 674.5 596.5C746 525 741 421.5 674.5 349.5Z" fill="#31E7E6"/>
<path d="M737 293C871 381 869 528.5 749 645C827 535.5 829.5 382.5 737 293Z" fill="#31E7E6"/>
<circle cx="490" cy="490" r="471.5" stroke="#FF0042" stroke-width="37"/>
<path d="M106 753.5L480.039 353.204C481.278 351.878 483.5 352.755 483.5 354.57V555.711C483.5 557.553 485.78 558.416 487 557.034L825 174" stroke="#FF0042" stroke-width="37"/>
</svg>
