<svg width="2109" height="930" viewBox="0 0 2109 930" fill="none" xmlns="http://www.w3.org/2000/svg">
<mask id="path-1-inside-1_116_95" fill="white">
<path d="M446.106 591.857C216.551 439.12 64.1819 130.534 0 0C80.019 62.3677 551.631 313.111 697.665 324.991C628.149 266.017 614.146 254.138 578.137 199.407C683.162 248.198 814.693 314.808 999.737 421.724C956.227 347.477 922.719 324.991 907.215 279.17C1059.25 385.237 1206.79 450.575 1262.3 487.062C1295.31 474.334 1446.34 389.48 1505.86 371.236C1457.35 431.907 1429.34 451.848 1363.32 495.972C1482.85 479.425 1672.9 381.843 1716.41 350.023C1685.9 411.542 1677.4 403.057 1642.39 445.059C1751.42 408.148 2079.99 149.343 2109 111.159C2095.5 218.499 1931.46 521.004 1823.43 621.98C1837.94 562.582 1840.61 577.825 1840.94 548.581C1821.43 577.432 1784.92 649.133 1690.9 733.563C1712.91 677.135 1714.41 651.679 1714.41 651.679C1638.89 726.35 1338.32 930 1148.27 930C928.72 930 692.164 702.591 580.638 565.552C585.139 618.161 638.651 692.409 655.155 716.592C544.629 666.953 375.589 439.12 375.589 439.12C377.59 471.364 401.595 514.64 446.106 591.857Z"/>
</mask>
<path d="M446.106 591.857C216.551 439.12 64.1819 130.534 0 0C80.019 62.3677 551.631 313.111 697.665 324.991C628.149 266.017 614.146 254.138 578.137 199.407C683.162 248.198 814.693 314.808 999.737 421.724C956.227 347.477 922.719 324.991 907.215 279.17C1059.25 385.237 1206.79 450.575 1262.3 487.062C1295.31 474.334 1446.34 389.48 1505.86 371.236C1457.35 431.907 1429.34 451.848 1363.32 495.972C1482.85 479.425 1672.9 381.843 1716.41 350.023C1685.9 411.542 1677.4 403.057 1642.39 445.059C1751.42 408.148 2079.99 149.343 2109 111.159C2095.5 218.499 1931.46 521.004 1823.43 621.98C1837.94 562.582 1840.61 577.825 1840.94 548.581C1821.43 577.432 1784.92 649.133 1690.9 733.563C1712.91 677.135 1714.41 651.679 1714.41 651.679C1638.89 726.35 1338.32 930 1148.27 930C928.72 930 692.164 702.591 580.638 565.552C585.139 618.161 638.651 692.409 655.155 716.592C544.629 666.953 375.589 439.12 375.589 439.12C377.59 471.364 401.595 514.64 446.106 591.857Z" stroke="#FF0042" stroke-width="12" mask="url(#path-1-inside-1_116_95)"/>
</svg>
