<svg width="1756" height="850" viewBox="0 0 1756 850" fill="none" xmlns="http://www.w3.org/2000/svg">
<path d="M1732.82 33.8164C1705.63 143.538 1646.27 329.654 1590.8 496.552C1559.73 590.05 1529.98 677.216 1508 741.011C1497.01 772.907 1487.96 798.957 1481.67 817.031C1479.01 824.664 1476.84 830.873 1475.22 835.5H386.691C386.643 835.41 386.595 835.319 386.546 835.228C383.78 830.048 379.722 822.441 374.558 812.738C364.228 793.333 349.469 765.544 331.759 732.017C296.336 664.958 249.112 574.96 201.895 483.179C154.664 391.373 107.493 297.885 72.1504 223.811C54.4689 186.752 39.8249 154.712 29.6279 130.238C27.893 126.074 26.2972 122.152 24.8428 118.479L346.993 313.406L351.043 315.855L355.757 315.445C489.82 303.777 698.818 306.867 897.974 310.685C1096.2 314.485 1285.32 319.039 1377.43 309.93L1381.76 309.501L1385.14 306.755L1376 295.5C1384.97 306.541 1385.14 306.751 1385.14 306.753C1385.15 306.751 1385.15 306.748 1385.15 306.745C1385.16 306.738 1385.18 306.728 1385.19 306.714C1385.23 306.686 1385.28 306.644 1385.35 306.589C1385.48 306.478 1385.69 306.312 1385.96 306.093C1386.5 305.654 1387.3 305.001 1388.36 304.147C1390.46 302.439 1393.57 299.925 1397.55 296.7C1405.52 290.251 1417.01 280.965 1431.1 269.622C1459.28 246.934 1497.83 216.02 1539.32 183.111C1606.97 129.465 1682.02 70.8559 1732.82 33.8164Z" stroke="#005D65" stroke-width="29"/>
</svg>
