<svg width="711" height="223" viewBox="0 0 711 223" fill="none" xmlns="http://www.w3.org/2000/svg">
<mask id="path-1-inside-1_35_6" fill="white">
<path d="M331.2 17.9839C142.56 3.59678 31.8 0 0 0C0 48.5564 115.2 223 331.2 223C483.243 223 531 194.226 694.8 86.3226L669.6 147.468C669.6 147.468 694.8 120.492 711 62.9435C663 53.9516 519.84 32.371 331.2 17.9839Z"/>
</mask>
<path d="M331.2 17.9839C142.56 3.59678 31.8 0 0 0C0 48.5564 115.2 223 331.2 223C483.243 223 531 194.226 694.8 86.3226L669.6 147.468C669.6 147.468 694.8 120.492 711 62.9435C663 53.9516 519.84 32.371 331.2 17.9839Z" stroke="black" stroke-width="36" mask="url(#path-1-inside-1_35_6)"/>
</svg>
