<svg width="2266" height="768" viewBox="0 0 2266 768" fill="none" xmlns="http://www.w3.org/2000/svg">
<path d="M557.999 750.5C447.501 677.5 247.498 395 203.498 201.5C189.823 261.618 182.154 400.478 185.674 537.5C91 409 8 230.5 8 8H2258C2258 107.5 2059 429 1864.93 537.5C1815.15 384.126 1746.15 228.348 1703.5 184.5C1674.5 246 1645.5 313.5 1576.5 409C1557.5 343.5 1537 308 1512 274.5C1505.5 378.5 1459.5 517.5 1381 652.5C1376.5 547.5 1266 357.5 1166.5 245.5C1123.5 345 964.999 571 827.499 702.5C812.499 611.5 749.499 370.5 675.499 230.5C665.501 261 660.999 270.5 648.999 315C635.001 257 606.999 201.5 583.499 159.5C556.001 195.5 508.999 456 557.999 750.5Z" fill="#31E7E6" stroke="#005D65" stroke-width="16"/>
</svg>
