<svg width="737" height="343" viewBox="0 0 737 343" fill="none" xmlns="http://www.w3.org/2000/svg">
<mask id="path-1-inside-1_82_66" fill="white">
<path d="M301.097 0C301.097 0 134.807 73.1969 0 175.036C53.2132 215.701 126.381 270.157 263.404 343C607.072 232.674 714.828 170.439 714.828 170.439C714.828 170.439 718.819 178.219 644.764 232.674C724.14 194.838 721.036 167.964 721.036 167.964C721.036 167.964 730.955 162.116 737 158.063C611.506 88.0485 301.097 0 301.097 0Z"/>
</mask>
<path d="M301.097 0C301.097 0 134.807 73.1969 0 175.036C53.2132 215.701 126.381 270.157 263.404 343C607.072 232.674 714.828 170.439 714.828 170.439C714.828 170.439 718.819 178.219 644.764 232.674C724.14 194.838 721.036 167.964 721.036 167.964C721.036 167.964 730.955 162.116 737 158.063C611.506 88.0485 301.097 0 301.097 0Z" stroke="black" stroke-width="26" mask="url(#path-1-inside-1_82_66)"/>
</svg>
