<svg width="1959" height="783" viewBox="0 0 1959 783" fill="none" xmlns="http://www.w3.org/2000/svg">
<path d="M0 783V128.173C102.439 239.135 127.192 269.075 297.008 399.48C276.554 304.166 294.067 208.525 305.008 142.137C347.343 188.608 451.444 293.611 518.513 339.134C505.671 266.107 512.865 139.979 529.514 69.3229C586.595 155.153 674.695 274.209 727.019 320.681C732.251 248.129 772.261 172.167 796.521 135.654C829.818 193.032 842.044 210.43 862.022 277.292C960.487 212.801 974.014 193.62 1071.53 118.697C1071.53 202.63 1072.34 211.558 1049.03 271.307C1118 219.619 1204.37 130.658 1230.53 111.216C1235.29 216.014 1228.87 211.648 1216.03 282.778C1334 222.08 1395.31 180.948 1469.04 140.641C1463.33 191.38 1466.43 196.228 1435.04 248.864C1588.2 198.125 1658.72 150.517 1730.54 119.694C1722.46 225.441 1723.96 200.218 1693.04 281.78C1777.05 215.45 1884.05 94.758 1953.05 0L1959 783H0Z" fill="white"/>
</svg>
