<svg width="546" height="444" viewBox="0 0 546 444" fill="none" xmlns="http://www.w3.org/2000/svg">
<path d="M59.4727 15.2363C67.2296 13.7109 79.8386 12.1646 98.2227 12.5635C135.015 13.3618 194.893 21.9509 285.124 54.0205C399.5 94.6718 461.474 169.207 495.015 233.59C511.822 265.853 521.486 295.581 526.938 317.195C529.662 327.993 531.328 336.739 532.308 342.728C532.797 345.721 533.115 348.022 533.307 349.543C533.394 350.232 533.454 350.761 533.494 351.121C533.377 367.396 528.5 380.058 520.216 390.198C511.666 400.664 498.886 409.163 482.12 415.688C448.332 428.837 401.173 432.894 349.607 431.096C246.772 427.509 132.27 400.918 87.1758 385.526C79.3731 382.863 71.2235 376.533 63.1221 365.867C55.0659 355.261 47.6232 341.1 41.0527 324.156C27.9144 290.275 18.891 246.909 14.8682 202.96C10.8449 159.006 11.8974 115.289 18.4111 80.7549C21.671 63.4722 26.2083 48.9831 31.832 38.043C37.4651 27.0848 43.6249 20.756 49.6309 17.876C49.6631 17.8629 49.7052 17.8464 49.7568 17.8262C50.0214 17.7224 50.5428 17.5278 51.335 17.2715C52.919 16.7589 55.5931 15.9993 59.4727 15.2363Z" stroke="#4EF3F0" stroke-width="25"/>
</svg>
