<svg width="1779" height="863" viewBox="0 0 1779 863" fill="none" xmlns="http://www.w3.org/2000/svg">
<path d="M436.879 415.551C426.882 525.05 491.363 646.05 512.857 715.05C436.879 661.55 291.92 499.05 241.934 326.55C217.941 355.55 180.952 466.55 180.952 466.55C180.952 466.55 11.5 216.55 11.5 1.05035V851.05H1767V1.05035C1752 164.55 1669.03 388.55 1621.04 493.55C1621.04 401.551 1609.54 338.55 1586.05 301.551C1566.56 424.55 1566.56 518.55 1466.09 658.05C1466.09 532.55 1435.59 454.05 1400.1 401.551C1389.61 473.051 1369.61 631.55 1300.13 743.55C1300.13 626.05 1286.14 560.05 1182.67 415.551C1171.67 558.05 1183.67 639.55 1078.7 761.55C1071.7 658.05 975.725 519.05 911.244 415.551C911.244 485.55 911.244 628.05 860.258 756.05C789.778 599.55 762.786 516.05 682.309 415.551C665.314 521.05 682.309 609.05 696.805 725.55C567.342 669.05 484.365 510.55 436.879 415.551Z" fill="#31E7E6" stroke="#005D65" stroke-width="23"/>
</svg>
