<svg width="1777" height="704" viewBox="0 0 1777 704" fill="none" xmlns="http://www.w3.org/2000/svg">
<path d="M451.431 173.861C409.44 322.151 413.44 524.864 435.435 664.167C373.115 610.243 189.488 431.996 189.488 114.945C168.826 133.252 101.008 395.548 123.003 524.365H10.5V692.656H1766.5V550.328H1658.67C1648.67 481.426 1512.7 114.945 1468.71 39.0525C1468.71 78.9959 1400.22 346.117 1338.74 499.9C1327.74 426.004 1321.74 210.31 1247.76 114.945C1220.26 315.661 1100.79 573.795 1020.81 672.156C1006.81 477.931 902.833 255.745 852.844 139.91C835.847 233.777 736.369 508.887 615.895 667.662C588.401 539.843 515.917 265.731 451.431 173.861Z" fill="#3ACECE" stroke="#0F656A" stroke-width="21"/>
</svg>
