<svg width="2266" height="810" viewBox="0 0 2266 810" fill="none" xmlns="http://www.w3.org/2000/svg">
<path d="M557.999 742.5C447.501 669.5 247.498 387 203.498 193.5C189.823 253.618 182.154 392.478 185.674 529.5C91 401 8 222.5 8 0V802H2258V0C2258 99.5 2059 421 1864.93 529.5C1815.15 376.126 1746.15 220.348 1703.5 176.5C1674.5 238 1645.5 305.5 1576.5 401C1557.5 335.5 1537 300 1512 266.5C1505.5 370.5 1459.5 509.5 1381 644.5C1376.5 539.5 1266 349.5 1166.5 237.5C1123.5 337 964.999 563 827.499 694.5C812.499 603.5 749.499 362.5 675.499 222.5C665.501 253 660.999 262.5 648.999 307C635.001 249 606.999 193.5 583.499 151.5C556.001 187.5 508.999 448 557.999 742.5Z" fill="#31E7E6" stroke="#005D65" stroke-width="16"/>
</svg>
