<svg width="1989" height="783" viewBox="0 0 1989 783" fill="none" xmlns="http://www.w3.org/2000/svg">
<path d="M1955.38 15.957C1969.58 82.0086 2008.66 185.652 1955.38 306.876C1926.19 373.282 1901.09 421.257 1871.91 460.73C1845 497.13 1814.47 526.495 1773.73 556.39C1773.61 526.185 1772.9 522.555 1769.94 481.127L1768.44 460.173L1757.84 478.311C1725.6 533.486 1654.22 627.004 1561.07 696.695C1584.07 635.543 1598.97 542.144 1601.09 471.326L1601.6 454.274L1589.87 466.662C1549.98 508.799 1435.46 606.23 1300.82 681.895C1312.86 649.566 1328.01 608.875 1324.23 566.117L1323.08 553.089L1313.39 561.873C1298.61 575.27 1274.52 590.966 1245.35 607.505C1216.28 623.984 1182.55 641.088 1148.75 657.339C1084.36 688.306 1020.06 716.024 987.695 730.336C979.167 719.454 977.056 714.999 972.259 708.444C967.112 701.412 960.111 694.009 941.495 677.788L934.785 671.941L931.258 680.111C912.595 723.333 908.075 738.959 883.872 773.835C853.845 751.785 850.763 748.646 787.753 684.32L780.365 676.778L776.958 686.771C773.756 696.158 770.664 701.871 769.857 710.871C769.202 718.188 769.92 728.038 772.188 745.625C697.16 708.368 603.128 655.741 546.587 560.518L537.365 544.987L534.575 562.832C527.884 605.635 527.807 684.669 527.833 735.925C501.621 718.063 464.273 685.442 427.005 650.123C384.94 610.258 343.561 567.522 319.468 540.058L308.082 527.078V544.344C308.082 565.083 306.568 582.96 317.271 660.308C184.889 552.956 67.9582 393.299 11.7705 158.783C102.035 256.366 140.493 292.726 301.104 416.38L315.13 427.179L311.425 409.869C292.546 321.668 302.809 232.845 313.163 167.304C360.336 217.657 458.346 312.677 521.644 355.751L534.36 364.404L531.703 349.254C519.866 281.774 521.535 170.139 535.134 98.6533C592.396 183.223 676.541 291.338 726.94 336.215L736.799 344.993L737.746 331.827C742.485 265.955 772.41 195.749 795.716 157.082C824.65 207.009 834.336 224.047 852.987 286.627L855.481 294.999L862.784 290.204C957.818 227.8 972.043 210.07 1059.57 142.126C1059.25 175.849 1057.63 197.072 1053.86 215.75C1050.14 234.155 1044.32 250.276 1035.23 273.768L1031.14 284.314L1030.58 285.742L1022.31 306.99L1040.54 293.295C1075.35 267.144 1116.26 229.713 1151.56 196.566C1169.3 179.911 1185.51 164.446 1199.07 151.786C1207.03 144.349 1213.93 138.031 1219.52 133.143C1221.13 176.759 1219.86 199.053 1216.86 217.717C1215.21 228.001 1213.02 237.264 1210.38 248.635C1207.75 259.98 1204.72 273.237 1201.48 291.225L1199.14 304.196L1210.86 298.153C1322.77 240.423 1385.34 200.251 1453.94 162.045C1451.73 179.586 1449.59 190.2 1445.47 200.903C1440.37 214.162 1432.18 227.724 1416.34 254.349L1407.42 269.338L1423.97 263.841C1570.27 215.253 1648.29 168.402 1716.64 137.734C1712.96 182.98 1709.73 202.768 1704.23 219.845C1701.25 229.097 1697.57 237.648 1692.58 249.26C1687.61 260.832 1681.44 275.202 1673.66 295.783L1665.91 316.276L1683.58 303.324C1766.38 242.636 1885.16 111.163 1955.38 15.957Z" fill="#42DBE6" stroke="#F70042" stroke-width="13"/>
</svg>
