<svg width="1781" height="801" viewBox="0 0 1781 801" fill="none" xmlns="http://www.w3.org/2000/svg">
<path d="M437 426C427 535.5 491.5 656.5 513 725.5C437 672 292 509.5 242 337C218 366 189 426 181 477C94.5 358.5 11.5 227 11.5 11.5H1767.5C1752.5 175 1669.5 399 1621.5 504C1621.5 412 1610 349 1586.49 312C1567 435 1567 529 1466.5 668.5C1466.5 543 1436 464.5 1400.5 412C1390 483.5 1370 642 1300.5 754C1300.5 636.5 1286.5 570.5 1183 426C1172 568.5 1184 650 1079 772C1072 668.5 976 529.5 911.5 426C911.5 496 911.5 638.5 860.5 766.5C790 610 763 526.5 682.5 426C665.5 531.5 682.5 619.5 697 736C567.5 679.5 484.5 521 437 426Z" fill="#31E7E6" stroke="#005D65" stroke-width="23"/>
</svg>
