<svg width="1777" height="862" viewBox="0 0 1777 862" fill="none" xmlns="http://www.w3.org/2000/svg">
<path d="M451.431 336.206C409.44 484.496 413.44 687.208 435.435 826.511C373.115 772.588 189.488 594.34 189.488 277.289C168.826 295.597 101.008 557.892 123.003 686.709H10.5V10.5H1766.5V712.673H1658.67C1648.67 643.77 1512.7 277.289 1468.71 201.397C1468.71 241.34 1400.22 508.462 1338.74 662.244C1327.74 588.349 1321.74 372.654 1247.76 277.289C1220.26 478.005 1100.79 736.139 1020.81 834.5C1006.81 640.275 902.833 418.09 852.844 302.254C835.847 396.121 736.369 671.231 615.895 830.006C588.401 702.187 515.917 428.076 451.431 336.206Z" fill="#3ACECE" stroke="#0F656A" stroke-width="21"/>
</svg>
