<svg width="734" height="254" viewBox="0 0 734 254" fill="none" xmlns="http://www.w3.org/2000/svg">
<mask id="path-1-inside-1_40_26" fill="white">
<path d="M351.5 44.5C204.7 62.9 16.5 100.5 0 111.5C0 111.5 12 164 52.5 192.5C35 167.833 18.5 130.5 18.5 130.5C40.5 149 229.5 288.5 461 245C646.2 210.2 720.167 67.1667 734 0C644.5 4.5 498.3 26.1 351.5 44.5Z"/>
</mask>
<path d="M351.5 44.5C204.7 62.9 16.5 100.5 0 111.5C0 111.5 12 164 52.5 192.5C35 167.833 18.5 130.5 18.5 130.5C40.5 149 229.5 288.5 461 245C646.2 210.2 720.167 67.1667 734 0C644.5 4.5 498.3 26.1 351.5 44.5Z" stroke="#2AF5F8" stroke-width="44.6" mask="url(#path-1-inside-1_40_26)"/>
</svg>
