<svg width="364" height="661" viewBox="0 0 364 661" fill="none" xmlns="http://www.w3.org/2000/svg">
<path d="M162.324 169.185C166.26 108.199 177.081 0 177.081 0V159.348C305.957 176.07 325.632 186.89 364 199.677C269.557 234.104 158.389 257.711 29.5137 292.138C226.27 310.827 347.275 335.418 364 345.254C326.616 369.845 212.497 391.485 151.503 406.24C148.551 482.963 142.649 661 142.649 661C142.649 661 127.892 468.208 133.795 395.42C218.4 371.812 335.47 345.254 335.47 345.254C335.47 345.254 61.9783 316.729 0 295.089C76.7348 258.695 218.4 219.35 322.681 199.677C257.751 188.857 230.205 183.939 162.324 169.185Z" fill="#31F3F7"/>
</svg>
